<svg id="svg8" xmlns="http://www.w3.org/2000/svg" xmlns:xlink="http://www.w3.org/1999/xlink" viewBox="0 0 520.42 649.42"><defs><style>.cls-1,.cls-3{fill:#1d1d1b;}.cls-2{fill:#fff;}.cls-3{stroke:#1d1d1b;stroke-miterlimit:10;stroke-width:3px;}.cls-4{fill:url(#Unbenannter_Verlauf_114);}.cls-5{fill:url(#Unbenannter_Verlauf_99);}</style><linearGradient id="Unbenannter_Verlauf_114" x1="260.21" y1="612.3" x2="260.21" y2="649.42" gradientUnits="userSpaceOnUse"><stop offset="0.01" stop-color="#1d1d1b" stop-opacity="0"/><stop offset="1" stop-color="#1d1d1b"/></linearGradient><linearGradient id="Unbenannter_Verlauf_99" x1="303.36" y1="464.61" x2="303.36" y2="578.68" gradientUnits="userSpaceOnUse"><stop offset="0" stop-color="#1d1d1b"/><stop offset="1" stop-color="#1d1d1b" stop-opacity="0"/></linearGradient></defs><polygon class="cls-1" points="260.21 0 390.32 157.32 520.42 477.91 260.21 396.27 0 477.91 130.11 157.32 260.21 0"/><path d="M90,600.93H223.2l-8.1,12.86H146.67l-24.9,39.3H152l7.46-11.87-6.11-12.86h52.6l4.23,8.9-10,15.83h.27L192.35,666H75.64L69.88,653.9l24.28-38.49,7,8.9L95.78,613Z" transform="translate(-43.15 -77.26)"/><path d="M192.44,666l8.1-12.86H224.1L216,666Z" transform="translate(-43.15 -77.26)"/><path d="M243.16,600.93H307.9L276.7,650.3l-21,2.79h49.45l33-52.16h48.2l-5.66,8.91-10,15.91L353.4,653.09,334.52,666H215.46l31.83-50.54,7.11,8.9L248.91,613Z" transform="translate(-43.15 -77.26)"/><path d="M339,666l8.1-12.86h23.56L362.57,666Z" transform="translate(-43.15 -77.26)"/><path d="M501,666H355.29l73.55-50,7.74,9.8-5.4-11.33-6.47-13.49h45.14ZM401,653.09h48.64l-7.19-15-17.53,11.87Z" transform="translate(-43.15 -77.26)"/><path class="cls-2" d="M488,666l8.09-12.86h23.56L511.57,666Z" transform="translate(-43.15 -77.26)"/><polygon class="cls-3" points="260.21 6.43 488.36 425.45 388.26 460.75 260.21 385.34 132.17 461.37 32.07 425.45 260.21 6.43"/><polygon class="cls-2" points="260.21 216.36 313.77 324.88 206.65 324.88 260.21 216.36"/><ellipse class="cls-4" cx="260.21" cy="630.86" rx="223.69" ry="18.56"/><polygon class="cls-2" points="293.01 338.56 260.21 383.42 227.41 338.56 260.21 293.7 293.01 338.56"/><path id="path903" class="cls-5" d="M253.05,464.79l100.62-.18L306.35,578.68Z" transform="translate(-43.15 -77.26)"/></svg>