<?xml version="1.0" encoding="UTF-8" standalone="no"?>
<svg
   xmlns:dc="http://purl.org/dc/elements/1.1/"
   xmlns:cc="http://creativecommons.org/ns#"
   xmlns:rdf="http://www.w3.org/1999/02/22-rdf-syntax-ns#"
   xmlns:svg="http://www.w3.org/2000/svg"
   xmlns="http://www.w3.org/2000/svg"
   xmlns:xlink="http://www.w3.org/1999/xlink"
   xmlns:sodipodi="http://sodipodi.sourceforge.net/DTD/sodipodi-0.dtd"
   xmlns:inkscape="http://www.inkscape.org/namespaces/inkscape"
   width="100mm"
   height="25.700001mm"
   viewBox="0 0 100 25.700001"
   version="1.1"
   id="svg8"
   inkscape:version="1.0.2 (e86c870879, 2021-01-15, custom)"
   sodipodi:docname="Logo_Shapes_with_laser.svg">
  <defs
     id="defs2">
    <linearGradient
       inkscape:collect="always"
       id="linearGradient929">
      <stop
         style="stop-color:#ffffff;stop-opacity:1;"
         offset="0"
         id="stop925" />
      <stop
         style="stop-color:#ffffff;stop-opacity:0;"
         offset="1"
         id="stop927" />
    </linearGradient>
    <rect
       x="50.837799"
       y="14.741071"
       width="19.087797"
       height="31.75"
       id="rect864" />
    <rect
       x="3.7797618"
       y="44.034225"
       width="92.604172"
       height="15.308037"
       id="rect858" />
    <rect
       x="104.13244"
       y="33.261906"
       width="66.523811"
       height="34.395832"
       id="rect852" />
    <rect
       x="15.119048"
       y="10.583333"
       width="184.45238"
       height="165.55357"
       id="rect15" />
    <rect
       x="14.363095"
       y="11.339286"
       width="182.18452"
       height="170.08929"
       id="rect9" />
    <linearGradient
       inkscape:collect="always"
       xlink:href="#linearGradient929"
       id="linearGradient931"
       x1="28.434259"
       y1="-14.256732"
       x2="28.571474"
       y2="-1.5399921"
       gradientUnits="userSpaceOnUse"
       gradientTransform="translate(5.6005731,-1.7921834)" />
  </defs>
  <sodipodi:namedview
     id="base"
     pagecolor="#525252"
     bordercolor="#666666"
     borderopacity="1.0"
     inkscape:pageopacity="1"
     inkscape:pageshadow="2"
     inkscape:zoom="2.3621095"
     inkscape:cx="163.57613"
     inkscape:cy="-76.729759"
     inkscape:document-units="mm"
     inkscape:current-layer="layer1"
     inkscape:document-rotation="0"
     showgrid="false"
     inkscape:pagecheckerboard="true"
     inkscape:window-width="1920"
     inkscape:window-height="1057"
     inkscape:window-x="1912"
     inkscape:window-y="-8"
     inkscape:window-maximized="1"
     units="mm"
     showguides="false">
    <sodipodi:guide
       position="91.869128,40.569358"
       orientation="32.673417,-43.940337"
       id="guide985" />
    <sodipodi:guide
       position="80.243246,31.924516"
       orientation="0,-21.14423"
       id="guide987" />
    <sodipodi:guide
       position="74.648835,31.924516"
       orientation="-5.197015,7.0205434"
       id="guide989" />
    <sodipodi:guide
       position="76.506354,33.29956"
       orientation="-9.2642459,12.760871"
       id="guide991" />
    <sodipodi:guide
       position="79.882668,35.750725"
       orientation="-6.6431475,9.1679935"
       id="guide993" />
    <sodipodi:guide
       position="82.308366,37.508391"
       orientation="7.8633164,-12.430483"
       id="guide995" />
    <sodipodi:guide
       position="79.019468,35.427888"
       orientation="-6.9594873,-3.0147043"
       id="guide997" />
    <sodipodi:guide
       position="78.221827,37.269253"
       orientation="-5.6489296,-2.4778388"
       id="guide999" />
    <sodipodi:guide
       position="77.566232,38.763866"
       orientation="-6.8239082,-2.9734043"
       id="guide1001" />
    <sodipodi:guide
       position="76.779519,40.569358"
       orientation="0,20.731253"
       id="guide1003" />
    <sodipodi:guide
       position="82.264663,40.569358"
       orientation="8.4959916,3.71677"
       id="guide1005" />
    <sodipodi:guide
       position="83.248059,38.32146"
       orientation="-8.4959916,11.480624"
       id="guide1007" />
    <sodipodi:guide
       position="86.285641,40.569358"
       orientation="-1.4210855e-14,21.102942"
       id="guide1009" />
    <sodipodi:guide
       position="76.571914,40.569358"
       orientation="11.885353,-16.023356"
       id="guide1011" />
    <sodipodi:guide
       position="72.332401,37.424692"
       orientation="6.9142886,-9.5809745"
       id="guide1013" />
    <sodipodi:guide
       position="69.797435,35.595286"
       orientation="6.6431433,-9.1267091"
       id="guide1015" />
    <sodipodi:guide
       position="67.382659,33.837621"
       orientation="-8.2700322,13.091248"
       id="guide1017" />
    <sodipodi:guide
       position="70.846386,36.025734"
       orientation="15.500665,6.7727587"
       id="guide1019" />
    <sodipodi:guide
       position="72.638345,31.924516"
       orientation="0,-20.731249"
       id="guide1021" />
    <sodipodi:guide
       position="67.153202,31.924516"
       orientation="-4.6999103,-2.0648657"
       id="guide1023" />
    <sodipodi:guide
       position="66.606872,33.168034"
       orientation="4.6999103,-6.2771933"
       id="guide1025" />
    <sodipodi:guide
       position="64.946032,31.924516"
       orientation="0,-21.144222"
       id="guide1027" />
    <sodipodi:guide
       position="59.351623,31.924516"
       orientation="-16.540069,22.259253"
       id="guide1029" />
    <sodipodi:guide
       position="65.24105,36.300743"
       orientation="-2.8018718,3.8406467"
       id="guide1031" />
    <sodipodi:guide
       position="66.257221,37.042071"
       orientation="-6.6431433,9.1680053"
       id="guide1033" />
    <sodipodi:guide
       position="68.682923,38.799736"
       orientation="8.4959916,-13.421625"
       id="guide1035" />
    <sodipodi:guide
       position="65.131785,36.551839"
       orientation="-2.7114872,-1.1976233"
       id="guide1037" />
    <sodipodi:guide
       position="64.814913,37.269253"
       orientation="0,0.041284437"
       id="guide1039" />
    <sodipodi:guide
       position="64.825837,37.269253"
       orientation="-5.6489296,-2.519135"
       id="guide1041" />
    <sodipodi:guide
       position="64.159315,38.763866"
       orientation="-6.8239082,-2.9734082"
       id="guide1043" />
    <sodipodi:guide
       position="63.372601,40.569358"
       orientation="0,20.772549"
       id="guide1045" />
    <sodipodi:guide
       position="68.868672,40.569358"
       orientation="4.4739509,1.9409734"
       id="guide1047" />
    <sodipodi:guide
       position="69.382221,39.385625"
       orientation="-4.4739509,6.0707048"
       id="guide1049" />
    <sodipodi:guide
       position="70.988428,40.569358"
       orientation="0,21.102938"
       id="guide1051" />
    <sodipodi:guide
       position="46.633101,33.634353"
       orientation="0,22.341846"
       id="guide1053" />
    <sodipodi:guide
       position="52.544381,33.634353"
       orientation="-7.5469766,-3.3037851"
       id="guide1055" />
    <sodipodi:guide
       position="51.670255,35.631157"
       orientation="5.9652736,-8.0529743"
       id="guide1057" />
    <sodipodi:guide
       position="49.539572,34.052845"
       orientation="1.581703,-10.985086"
       id="guide1059" />
    <sodipodi:guide
       position="58.783459,31.924516"
       orientation="0,-66.901645"
       id="guide1061" />
    <sodipodi:guide
       position="41.082398,31.924516"
       orientation="-25.126445,33.781201"
       id="guide1063" />
    <sodipodi:guide
       position="50.020341,38.572555"
       orientation="4.9258655,3.5515698"
       id="guide1065" />
    <sodipodi:guide
       position="50.960027,37.269253"
       orientation="-5.6941197,-2.4778388"
       id="guide1067" />
    <sodipodi:guide
       position="50.304433,38.775822"
       orientation="-6.778718,-2.9734082"
       id="guide1069" />
    <sodipodi:guide
       position="49.517718,40.569358"
       orientation="0,20.731249"
       id="guide1071" />
    <sodipodi:guide
       position="55.002861,40.569358"
       orientation="32.673417,14.288871"
       id="guide1073" />
    <sodipodi:guide
       position="28.571475,40.569358"
       orientation="0,29.734062"
       id="guide1075" />
    <sodipodi:guide
       position="36.438612,40.569358"
       orientation="24.810105,-14.330164"
       id="guide1077" />
    <sodipodi:guide
       position="32.64709,34.005017"
       orientation="1.4009381,-9.6635746"
       id="guide1079" />
    <sodipodi:guide
       position="30.090269,33.634353"
       orientation="0,22.713523"
       id="guide1081" />
    <sodipodi:guide
       position="36.099888,33.634353"
       orientation="-7.7729317,4.5014084"
       id="guide1083" />
    <sodipodi:guide
       position="37.290886,35.690941"
       orientation="0,14.371464"
       id="guide1085" />
    <sodipodi:guide
       position="41.093336,35.690941"
       orientation="7.637357,3.3450813"
       id="guide1087" />
    <sodipodi:guide
       position="41.978389,33.670223"
       orientation="0.13557479,-0.041284437"
       id="guide1089" />
    <sodipodi:guide
       position="41.967465,33.634353"
       orientation="0,0.082607895"
       id="guide1091" />
    <sodipodi:guide
       position="41.989322,33.634353"
       orientation="6.462374,-3.7167583"
       id="guide1093" />
    <sodipodi:guide
       position="41.00593,31.924516"
       orientation="0,-59.71594"
       id="guide1095" />
    <sodipodi:guide
       position="25.206087,31.924516"
       orientation="-25.397594,14.619252"
       id="guide1097" />
    <sodipodi:guide
       position="29.074098,38.644296"
       orientation="4.4739552,3.2624851"
       id="guide1099" />
    <sodipodi:guide
       position="29.937297,37.460562"
       orientation="-5.694124,-2.519135"
       id="guide1101" />
    <sodipodi:guide
       position="29.270776,38.967133"
       orientation="-6.0556539,-2.6430273"
       id="guide1103" />
    <sodipodi:guide
       position="12.334607,33.634353"
       orientation="0,22.341846"
       id="guide1105" />
    <sodipodi:guide
       position="18.245887,33.634353"
       orientation="-7.5469766,-3.3037851"
       id="guide1107" />
    <sodipodi:guide
       position="17.37176,35.631157"
       orientation="5.9652736,-8.0529743"
       id="guide1109" />
    <sodipodi:guide
       position="15.241078,34.052845"
       orientation="1.581703,-10.985086"
       id="guide1111" />
    <sodipodi:guide
       position="24.484964,31.924516"
       orientation="0,-66.901645"
       id="guide1113" />
    <sodipodi:guide
       position="6.783904,31.924516"
       orientation="-25.126445,33.781201"
       id="guide1115" />
    <sodipodi:guide
       position="15.721847,38.572555"
       orientation="4.9258655,3.5515698"
       id="guide1117" />
    <sodipodi:guide
       position="16.661533,37.269253"
       orientation="-5.6941197,-2.4778388"
       id="guide1119" />
    <sodipodi:guide
       position="16.005938,38.775822"
       orientation="-6.778718,-2.9734082"
       id="guide1121" />
    <sodipodi:guide
       position="15.219224,40.569358"
       orientation="0,20.731253"
       id="guide1123" />
    <sodipodi:guide
       position="20.704368,40.569358"
       orientation="32.673417,14.288867"
       id="guide1125" />
    <sodipodi:guide
       position="-5.6833238,40.569358"
       orientation="0,61.161317"
       id="guide1127" />
    <sodipodi:guide
       position="10.498942,40.569358"
       orientation="6.4623783,-3.7167583"
       id="guide1129" />
    <sodipodi:guide
       position="9.5155493,38.85952"
       orientation="0,-31.427255"
       id="guide1131" />
    <sodipodi:guide
       position="1.2004213,38.85952"
       orientation="19.748665,-11.439356"
       id="guide1133" />
    <sodipodi:guide
       position="-1.8262416,33.634353"
       orientation="0,13.875898"
       id="guide1135" />
    <sodipodi:guide
       position="1.8450899,33.634353"
       orientation="-5.9652736,3.4276774"
       id="guide1137" />
    <sodipodi:guide
       position="2.7519963,35.212665"
       orientation="-6.4623783,-2.8082158"
       id="guide1139" />
    <sodipodi:guide
       position="2.0089892,36.922502"
       orientation="0,24.158927"
       id="guide1141" />
    <sodipodi:guide
       position="8.4010386,36.922502"
       orientation="4.4739552,1.9409734"
       id="guide1143" />
    <sodipodi:guide
       position="8.9145878,35.738768"
       orientation="7.9536967,-4.5840007"
       id="guide1145" />
    <sodipodi:guide
       position="7.7017376,33.634353"
       orientation="0,0.12389233"
       id="guide1147" />
    <sodipodi:guide
       position="7.7345175,33.634353"
       orientation="6.462374,-3.7167583"
       id="guide1149" />
    <sodipodi:guide
       position="6.7511252,31.924516"
       orientation="0,-53.603912"
       id="guide1151" />
    <sodipodi:guide
       position="-7.4315768,31.924516"
       orientation="-6.0556539,-2.6430273"
       id="guide1153" />
    <sodipodi:guide
       position="-8.1308778,33.526741"
       orientation="-19.34194,11.150271"
       id="guide1155" />
    <sodipodi:guide
       position="-5.1807019,38.644296"
       orientation="4.4739552,3.2211928"
       id="guide1157" />
    <sodipodi:guide
       position="-4.3284279,37.460562"
       orientation="-5.694124,-2.4778388"
       id="guide1159" />
    <sodipodi:guide
       position="-4.9840228,38.967133"
       orientation="-6.0556539,-2.6430273"
       id="guide1161" />
  </sodipodi:namedview>
  <metadata
     id="metadata5">
    <rdf:RDF>
      <cc:Work
         rdf:about="">
        <dc:format>image/svg+xml</dc:format>
        <dc:type
           rdf:resource="http://purl.org/dc/dcmitype/StillImage" />
        <dc:title></dc:title>
      </cc:Work>
    </rdf:RDF>
  </metadata>
  <g
     inkscape:label="Layer 1"
     inkscape:groupmode="layer"
     id="layer1">
    <path
       style="fill:#ffffff;fill-opacity:1;stroke:none;stroke-width:0.239869px;stroke-linecap:butt;stroke-linejoin:miter;stroke-opacity:1"
       d="m 2.6917513,12.373141 c 0,0 85.1346517,1.23425 88.0771547,0.97985 2.942504,-0.254398 3.634855,-0.847997 1.730884,-0.932796 -1.903974,-0.0848 -89.8080387,-0.04705 -89.8080387,-0.04705 z"
       id="path869"
       sodipodi:nodetypes="cssc" />
    <text
       xml:space="preserve"
       id="text7"
       style="font-style:normal;font-variant:normal;font-weight:normal;font-stretch:normal;font-size:10.5833px;line-height:1.25;font-family:CordiaUPC;-inkscape-font-specification:CordiaUPC;white-space:pre;shape-inside:url(#rect9);fill:#000000;fill-opacity:1;stroke:none;" />
    <g
       aria-label="Galaxy"
       transform="matrix(1.0324361,0,0,1.1297899,-15.314529,-14.247111)"
       id="text13"
       style="font-style:normal;font-weight:normal;font-size:10.5833px;line-height:1.25;font-family:'Swipe Race Demo';white-space:pre;shape-inside:url(#rect15);fill:#ffffff;fill-opacity:1;stroke:none">
      <path
         d="M 17.204051,12.610408 H 32.877917 L 31.92542,14.12382 h -8.053891 l -2.931574,4.624902 h 3.555989 l 0.878414,-1.396996 -0.719664,-1.513412 h 6.19123 l 0.497415,1.047747 -1.174746,1.862661 h 0.03175 l -0.952497,1.513411 H 15.510723 l -0.677331,-1.418162 2.85749,-4.529652 0.825498,1.047747 -0.634998,-1.333496 z"
         style="fill:#ffffff;fill-opacity:1"
         id="path868" />
      <path
         d="m 34.655911,18.748722 h 5.725565 L 39.534812,16.98131 37.471069,18.378306 Z M 46.42454,20.262133 H 29.279595 l 8.657139,-5.884314 0.910164,1.153579 -0.634998,-1.333495 -0.761998,-1.587495 h 5.312817 z"
         style="fill:#ffffff;fill-opacity:1"
         id="path870" />
      <path
         d="m 50.382664,12.610408 h 7.619975 l -3.672404,5.810231 -2.476493,0.328083 h 5.820815 l 1.15358,-1.820328 h 3.682988 l 0.857247,1.788578 -0.01058,0.03175 h 0.02117 l -0.952497,1.513411 H 47.123007 l 3.746489,-5.947814 0.83608,1.047747 -0.645581,-1.333496 z"
         style="fill:#ffffff;fill-opacity:1"
         id="path872" />
      <path
         d="m 67.876847,18.748722 h 5.725565 l -0.846664,-1.767412 -2.063743,1.396996 z m 11.768629,1.513411 H 62.500531 l 8.657139,-5.884314 0.910164,1.153579 -0.634998,-1.333495 -0.761998,-1.587495 h 5.312816 z"
         style="fill:#ffffff;fill-opacity:1"
         id="path874" />
      <path
         d="m 96.87507,12.610408 -4.10632,2.783408 -2.455325,1.619244 -2.33891,1.555745 3.354906,-1.936743 1.735661,3.630071 H 87.752266 L 87.223101,19.16147 85.614439,20.262133 H 80.19579 l 5.704399,-3.873487 0.984246,-0.656165 2.349493,-1.555745 -3.439572,1.98966 -0.306916,-0.634998 h 0.01058 l -0.645581,-1.322912 -0.761998,-1.598078 h 5.3234 l 0.497415,1.047746 1.555745,-1.047746 z"
         style="fill:#ffffff;fill-opacity:1"
         id="path876" />
      <path
         d="m 111.69169,12.610408 -11.26063,7.651725 h -5.418651 l 1.799161,-1.217079 3.27024,-2.169576 2.34949,-1.555746 -3.185571,1.841495 -0.772581,-1.629829 -0.634998,-1.322912 -0.761997,-1.598078 h 5.312817 l 0.9525,1.98966 2.94215,-1.98966 z"
         style="fill:#ffffff;fill-opacity:1"
         id="path878" />
    </g>
    <g
       aria-label="Under"
       transform="matrix(1.6831634,0,0,2.7237043,-49.145914,-16.353477)"
       id="text844"
       style="font-style:normal;font-variant:normal;font-weight:normal;font-stretch:normal;font-size:3.97908px;line-height:1.25;font-family:'Swipe Race Demo';-inkscape-font-specification:'Swipe Race Demo, Normal';font-variant-ligatures:normal;font-variant-caps:normal;font-variant-numeric:normal;font-variant-east-asian:normal;text-align:center;text-anchor:middle;white-space:pre;inline-size:59.7906;fill:#ffffff;fill-opacity:1;stroke:none;stroke-width:0.364307">
      <path
         id="path881"
         style="font-style:normal;font-variant:normal;font-weight:normal;font-stretch:normal;font-size:3.97908px;font-family:'Swipe Race Demo';-inkscape-font-specification:'Swipe Race Demo, Normal';font-variant-ligatures:normal;font-variant-caps:normal;font-variant-numeric:normal;font-variant-east-asian:normal;text-align:center;text-anchor:middle;fill:#ffffff;fill-opacity:1;stroke-width:2.94814"
         d="M 89.001953 33.587891 L 90.621094 39.076172 L 92.166016 44.236328 L 90.166016 40.181641 L 87.970703 45.824219 C 92.528836 45.780293 97.717543 45.733129 102.5 45.6875 L 107.22656 33.587891 L 89.001953 33.587891 z M 115.73242 33.587891 L 111.03125 45.607422 C 115.62538 45.563867 119.92916 45.52293 124.66602 45.478516 L 124.89453 44.892578 L 127.70508 37.642578 L 129.29883 33.587891 L 115.73242 33.587891 z M 86.755859 48.941406 L 81.205078 63.203125 L 114.71875 63.203125 L 120.03516 57.345703 L 122.93945 49.900391 C 118.53483 49.785166 113.77749 49.668289 109.48828 49.554688 L 106.44141 57.345703 L 92.519531 57.345703 L 98.443359 56.074219 L 101.07812 49.328125 C 95.934868 49.190802 91.651122 49.073783 86.755859 48.941406 z "
         transform="matrix(0.15719409,0,0,0.09714099,29.19854,6.0041308)" />
      <path
         id="path883"
         style="font-style:normal;font-variant:normal;font-weight:normal;font-stretch:normal;font-size:3.97908px;font-family:'Swipe Race Demo';-inkscape-font-specification:'Swipe Race Demo, Normal';font-variant-ligatures:normal;font-variant-caps:normal;font-variant-numeric:normal;font-variant-east-asian:normal;text-align:center;text-anchor:middle;fill:#ffffff;fill-opacity:1;stroke-width:2.94814"
         d="M 129.83203 33.587891 L 131.45117 39.076172 L 132.99609 44.236328 L 130.99609 40.181641 L 128.94922 45.439453 C 136.84372 45.365707 143.35581 45.300926 151.49219 45.226562 L 148.05664 33.587891 L 129.83203 33.587891 z M 159.06836 33.587891 L 154.54883 45.199219 C 158.6524 45.161837 161.75743 45.128943 165.88867 45.091797 L 170.38281 33.587891 L 159.06836 33.587891 z M 127.16992 50.009766 L 122.03516 63.203125 L 136.48828 63.203125 L 140.18359 53.740234 L 139.85547 51.609375 L 139.66211 50.330078 C 135.47326 50.222373 131.28904 50.117075 127.16992 50.009766 z M 140.33203 50.347656 L 142.56445 58 L 142.53906 58 L 144.08203 63.203125 L 158.81445 63.203125 L 163.60352 50.945312 C 160.2624 50.861884 157.13574 50.777453 153.81055 50.693359 L 154.58789 55.830078 L 153.08984 50.675781 C 148.76001 50.566183 144.61315 50.457652 140.33203 50.347656 z "
         transform="matrix(0.15719409,0,0,0.09714099,29.19854,6.0041308)" />
      <path
         id="path885"
         style="font-style:normal;font-variant:normal;font-weight:normal;font-stretch:normal;font-size:3.97908px;font-family:'Swipe Race Demo';-inkscape-font-specification:'Swipe Race Demo, Normal';font-variant-ligatures:normal;font-variant-caps:normal;font-variant-numeric:normal;font-variant-east-asian:normal;text-align:center;text-anchor:middle;fill:#ffffff;fill-opacity:1;stroke-width:2.94814"
         d="M 171.0918 33.587891 L 172.71289 39.076172 L 174.25586 44.236328 L 172.25586 40.181641 L 170.36133 45.048828 C 175.3894 45.003868 179.86974 44.965994 184.89648 44.921875 L 187.03906 39.445312 L 195.54492 39.445312 L 193.42773 44.849609 C 198.02721 44.80972 202.48291 44.773039 207.03711 44.734375 L 207.51758 43.5 L 206.32812 39.445312 L 206.32812 39.404297 L 204.60547 33.587891 L 171.0918 33.587891 z M 168.02148 51.058594 L 163.29492 63.203125 L 199.89844 63.203125 L 202.17578 57.345703 L 202.125 57.345703 L 204.24023 51.914062 C 199.74902 51.809188 195.32302 51.706334 190.78516 51.597656 L 188.5332 57.345703 L 174.60938 57.345703 L 180.5332 56.074219 L 182.36328 51.398438 C 177.50539 51.280442 172.88268 51.179239 168.02148 51.058594 z "
         transform="matrix(0.15719409,0,0,0.09714099,29.19854,6.0041308)" />
      <path
         id="path887"
         style="font-style:normal;font-variant:normal;font-weight:normal;font-stretch:normal;font-size:3.97908px;font-family:'Swipe Race Demo';-inkscape-font-specification:'Swipe Race Demo, Normal';font-variant-ligatures:normal;font-variant-caps:normal;font-variant-numeric:normal;font-variant-east-asian:normal;text-align:center;text-anchor:middle;fill:#ffffff;fill-opacity:1;stroke-width:2.94814"
         d="M 211.61719 33.587891 L 213.23828 39.076172 L 214.75781 44.236328 L 212.7832 40.181641 L 211.02148 44.701172 C 215.86339 44.660345 220.79842 44.61709 225.54883 44.578125 L 227.56445 39.445312 L 246.82812 39.445312 L 249.10742 33.587891 L 211.61719 33.587891 z M 208.17188 52.005859 L 205.94727 57.712891 L 207.56836 63.203125 L 240.42383 63.203125 L 242.70312 57.345703 L 215.13672 57.345703 L 221.06055 56.074219 L 222.52148 52.34375 C 217.84433 52.238933 212.94183 52.116342 208.17188 52.005859 z "
         transform="matrix(0.15719409,0,0,0.09714099,29.19854,6.0041308)" />
      <path
         id="path889"
         style="font-style:normal;font-variant:normal;font-weight:normal;font-stretch:normal;font-size:3.97908px;font-family:'Swipe Race Demo';-inkscape-font-specification:'Swipe Race Demo, Normal';font-variant-ligatures:normal;font-variant-caps:normal;font-variant-numeric:normal;font-variant-east-asian:normal;text-align:center;text-anchor:middle;fill:#ffffff;fill-opacity:1;stroke-width:2.94814"
         d="M 250.14453 33.587891 L 251.76562 39.076172 L 253.30859 44.236328 L 251.30859 40.181641 L 249.67188 44.386719 C 254.78794 44.34731 259.31084 44.318838 264.19141 44.283203 L 266.0918 39.445312 L 274.59766 39.445312 L 272.72656 44.220703 C 277.15154 44.189616 282.18408 44.148114 286.33789 44.121094 L 288.87305 37.642578 L 287.6582 33.587891 L 250.14453 33.587891 z M 246.37305 52.863281 L 242.34766 63.203125 L 256.80273 63.203125 L 260.73047 53.158203 C 256.12585 53.06815 251.19206 52.963552 246.37305 52.863281 z M 267.26172 53.277344 L 270.19336 63.203125 L 282.90039 63.203125 L 280.04688 53.509766 C 275.93827 53.439093 271.63186 53.359675 267.26172 53.277344 z "
         transform="matrix(0.15719409,0,0,0.09714099,29.19854,6.0041308)" />
    </g>
    <g
       aria-label="Attack"
       transform="matrix(0.9398084,0,0,1.0640467,-3.4962798,0)"
       id="text848"
       style="font-style:normal;font-weight:normal;font-size:11.2371px;line-height:1.25;font-family:sans-serif;fill:#ffffff;fill-opacity:1;stroke:none;stroke-width:0.280931">
      <path
         d="m 9.7090556,22.444381 h 6.0792714 l -0.898968,-1.876595 -2.191235,1.483297 z M 22.204711,24.051287 H 4.000609 l 9.191948,-6.247828 0.96639,1.224844 -0.674226,-1.415874 -0.809071,-1.685565 h 5.641024 z"
         style="font-style:normal;font-variant:normal;font-weight:normal;font-stretch:normal;font-size:11.2371px;font-family:'Swipe Race Demo';-inkscape-font-specification:'Swipe Race Demo, Normal';font-variant-ligatures:normal;font-variant-caps:normal;font-variant-numeric:normal;font-variant-east-asian:normal;fill:#ffffff;fill-opacity:1;stroke-width:0.280931"
         id="path892" />
      <path
         d="m 21.440384,15.926864 h 16.215135 l 0.764123,1.595668 h -7.652465 l 2.505873,0.404535 -3.865562,6.12422 h -6.427621 l 4.124015,-6.528755 h -4.888138 l -0.05619,-0.0899 z"
         style="font-style:normal;font-variant:normal;font-weight:normal;font-stretch:normal;font-size:11.2371px;font-family:'Swipe Race Demo';-inkscape-font-specification:'Swipe Race Demo, Normal';font-variant-ligatures:normal;font-variant-caps:normal;font-variant-numeric:normal;font-variant-east-asian:normal;fill:#ffffff;fill-opacity:1;stroke-width:0.280931"
         id="path894" />
      <path
         d="m 39.161287,15.926864 h 16.215135 l 0.764123,1.595668 H 48.48808 l 2.505873,0.404535 -3.865562,6.12422 H 40.70077 l 4.124016,-6.528755 h -4.888139 l -0.05618,-0.0899 z"
         style="font-style:normal;font-variant:normal;font-weight:normal;font-stretch:normal;font-size:11.2371px;font-family:'Swipe Race Demo';-inkscape-font-specification:'Swipe Race Demo, Normal';font-variant-ligatures:normal;font-variant-caps:normal;font-variant-numeric:normal;font-variant-east-asian:normal;fill:#ffffff;fill-opacity:1;stroke-width:0.280931"
         id="path896" />
      <path
         d="m 56.207947,22.444381 h 6.079271 l -0.898968,-1.876595 -2.191234,1.483297 z m 12.495655,1.606906 H 50.499501 l 9.191947,-6.247828 0.966391,1.224844 -0.674226,-1.415874 -0.809072,-1.685565 h 5.641025 z"
         style="font-style:normal;font-variant:normal;font-weight:normal;font-stretch:normal;font-size:11.2371px;font-family:'Swipe Race Demo';-inkscape-font-specification:'Swipe Race Demo, Normal';font-variant-ligatures:normal;font-variant-caps:normal;font-variant-numeric:normal;font-variant-east-asian:normal;fill:#ffffff;fill-opacity:1;stroke-width:0.280931"
         id="path898" />
      <path
         d="m 72.198307,15.926864 h 16.642145 l -1.011339,1.606905 -0.34835,0.561855 -4.551026,1.595668 1.370926,-2.157523 H 79.27768 l -2.887935,4.562262 -2.629481,0.34835 h 12.237201 l -1.011339,1.606906 H 70.400371 l -0.719174,-1.505772 3.034017,-4.809478 0.876493,1.112473 -0.674226,-1.415875 z"
         style="font-style:normal;font-variant:normal;font-weight:normal;font-stretch:normal;font-size:11.2371px;font-family:'Swipe Race Demo';-inkscape-font-specification:'Swipe Race Demo, Normal';font-variant-ligatures:normal;font-variant-caps:normal;font-variant-numeric:normal;font-variant-east-asian:normal;fill:#ffffff;fill-opacity:1;stroke-width:0.280931"
         id="path900" />
      <path
         d="m 89.301143,15.926864 h 8.090711 l -1.831647,2.899171 -1.685565,1.224844 -2.472162,1.797936 3.775666,-2.427213 1.719276,-1.101236 0.438247,-0.269691 3.314941,-2.123811 h 5.7534 l -2.64072,1.696802 v -0.01124 l -3.4835,2.202471 -2.4834,1.584431 2.98907,-1.640616 2.4834,4.281335 -7.29288,0.01124 -1.775462,-3.067729 -1.944018,3.067729 h -6.416384 l 3.977933,-6.31525 0.887731,1.112473 -0.685463,-1.415875 z"
         style="font-style:normal;font-variant:normal;font-weight:normal;font-stretch:normal;font-size:11.2371px;font-family:'Swipe Race Demo';-inkscape-font-specification:'Swipe Race Demo, Normal';font-variant-ligatures:normal;font-variant-caps:normal;font-variant-numeric:normal;font-variant-east-asian:normal;fill:#ffffff;fill-opacity:1;stroke-width:0.280931"
         id="path902" />
    </g>
    <text
       xml:space="preserve"
       id="text850"
       style="font-style:normal;font-weight:normal;font-size:10.5833px;line-height:1.25;font-family:sans-serif;white-space:pre;shape-inside:url(#rect852);fill:#000000;fill-opacity:1;stroke:none;" />
    <text
       xml:space="preserve"
       id="text862"
       style="font-style:normal;font-weight:normal;font-size:10.5833px;line-height:1.25;font-family:sans-serif;white-space:pre;shape-inside:url(#rect864);fill:#000000;fill-opacity:1;stroke:none;" />
    <path
       style="display:none;fill:none;stroke:#000000;stroke-width:0.264583px;stroke-linecap:butt;stroke-linejoin:miter;stroke-opacity:1"
       d="M -16.868578,14.745005 H -0.99357831 L -1.8191593,11.663894 -18.889719,7.0898511 h -9.507132 l -3.217468,1.8576067 v 5.7030532 z"
       id="path863" />
    <path
       style="display:none;fill:none;stroke:#000000;stroke-width:0.264583px;stroke-linecap:butt;stroke-linejoin:miter;stroke-opacity:1"
       d="m -29.152805,9.9258086 -1.799111,3.1161534 1.2343,4.606463 h 16.817788 l -0.497645,-1.85724 -8.3209,-2.229578 -1.006483,-3.7562425 z"
       id="path865" />
    <path
       style="display:none;fill:none;stroke:#000000;stroke-width:0.264583px;stroke-linecap:butt;stroke-linejoin:miter;stroke-opacity:1"
       d="m -21.718373,13.561607 h 5.88923 v -1.084459 h -6.047619"
       id="path867" />
    <g
       aria-label="Galaxy"
       transform="matrix(1.0324361,0,0,1.1297899,-23.445407,-29.116468)"
       id="text13-2"
       style="font-style:normal;font-weight:normal;font-size:10.5833px;line-height:1.25;font-family:'Swipe Race Demo';white-space:pre;shape-inside:url(#rect15);fill:#ffffff;fill-opacity:1;stroke:none" />
  </g>
</svg>
